<?xml version="1.0" standalone="no"?>
<!DOCTYPE svg PUBLIC "-//W3C//DTD SVG 20010904//EN"
 "http://www.w3.org/TR/2001/REC-SVG-20010904/DTD/svg10.dtd">
<svg version="1.0" xmlns="http://www.w3.org/2000/svg"
 width="1000.000000pt" height="1000.000000pt" viewBox="0 0 1000.000000 1000.000000"
 preserveAspectRatio="xMidYMid meet">
<metadata>
Created by potrace 1.11, written by Peter Selinger 2001-2013
</metadata>
<g transform="translate(0.000000,1000.000000) scale(0.100000,-0.100000)"
fill="#000000" stroke="none">
<path d="M4905 8972 c-137 -77 -3004 -1918 -3032 -1947 -17 -18 -35 -49 -38
-67 -9 -47 490 -4359 511 -4416 9 -23 30 -53 47 -66 30 -23 2449 -1416 2529
-1457 47 -24 109 -24 156 0 81 42 2499 1435 2529 1457 17 13 38 43 47 66 21
57 520 4369 511 4416 -3 18 -21 49 -38 67 -18 19 -331 224 -697 458 -366 233
-1029 657 -1475 942 -445 285 -832 531 -860 547 -67 37 -123 37 -190 0z m1067
-960 c524 -335 1149 -734 1388 -886 239 -153 440 -283 447 -289 16 -16 -458
-4113 -478 -4132 -13 -11 -338 -200 -1689 -975 -261 -150 -512 -295 -557 -322
l-82 -48 -1158 666 c-637 366 -1164 672 -1172 679 -9 9 -81 596 -251 2066
-131 1130 -237 2056 -234 2060 2 3 81 56 176 116 169 108 531 339 1943 1242
380 242 695 439 702 436 7 -2 441 -278 965 -613z"/>
<path d="M4905 7972 c-27 -16 -108 -66 -180 -112 -71 -46 -548 -348 -1060
-672 -511 -324 -942 -602 -957 -618 -15 -16 -31 -45 -37 -65 -8 -29 27 -348
174 -1611 204 -1742 185 -1624 268 -1676 148 -92 1810 -1035 1845 -1046 36
-12 48 -12 85 0 34 11 1696 954 1844 1046 83 52 64 -65 267 1672 133 1137 181
1581 176 1607 -5 20 -17 48 -28 62 -10 14 -241 167 -513 340 -272 172 -762
483 -1089 691 -327 207 -609 385 -627 394 -49 25 -110 20 -168 -12z m1094
-972 c895 -568 981 -625 981 -649 0 -14 -75 -667 -166 -1451 -127 -1096 -169
-1428 -180 -1437 -9 -6 -379 -219 -825 -473 l-809 -463 -810 463 c-445 254
-816 467 -824 474 -11 8 -55 358 -180 1436 -91 784 -166 1437 -166 1451 0 24
81 78 913 605 501 318 946 600 987 626 41 26 80 46 86 44 6 -3 453 -284 993
-626z"/>
<path d="M4919 6477 c-18 -12 -43 -37 -55 -54 -12 -18 -88 -198 -169 -400 -81
-202 -148 -369 -149 -370 -1 -1 -214 -37 -472 -81 -517 -86 -515 -86 -554
-162 -27 -53 -26 -118 3 -161 12 -19 148 -129 314 -254 161 -121 297 -225 302
-230 7 -7 -15 -168 -65 -474 -61 -379 -72 -470 -64 -500 20 -75 125 -139 196
-119 18 4 201 109 407 233 207 124 380 225 386 225 6 0 176 -101 379 -225 202
-124 383 -230 402 -236 79 -24 190 43 205 123 5 24 -16 188 -64 499 -48 317
-68 467 -61 474 6 5 142 109 303 230 166 125 302 235 314 254 29 43 30 108 3
161 -39 76 -37 76 -554 162 -258 44 -471 80 -472 81 -1 1 -67 169 -148 374
-81 205 -157 387 -170 405 -44 67 -152 89 -217 45z m269 -1064 c7 -12 27 -34
46 -48 29 -22 70 -31 332 -75 165 -28 310 -53 323 -56 20 -4 -4 -25 -163 -145
-104 -78 -196 -154 -206 -172 -12 -19 -20 -50 -20 -75 0 -35 80 -589 94 -654
5 -23 18 -29 -284 156 -215 132 -251 150 -295 154 -64 5 -64 5 -372 -181 -134
-80 -243 -144 -243 -141 0 3 23 145 50 315 28 170 50 329 50 352 0 24 -8 56
-20 74 -10 18 -102 94 -206 172 -159 120 -183 141 -163 146 13 2 148 25 299
50 300 49 347 62 383 105 13 15 61 122 107 237 46 114 88 217 93 228 8 16 25
-20 97 -200 47 -121 92 -230 98 -242z"/>
</g>
</svg>
