
		<svg xmlns="http://www.w3.org/2000/svg" xmlns:xlink="http://www.w3.org/1999/xlink" version="1.1" width="3206.896551724138" height="1117.2413793103449">
			<rect fill="#ffffff" width="3206.896551724138" height="1117.2413793103449"/>
			<g transform="scale(10.344827586206897) translate(10, 10)">
				<defs id="SvgjsDefs7331"></defs><g id="SvgjsG7332" featureKey="root" fill="#ffffff"></g><g id="SvgjsG7333" featureKey="symbol1" fill="#29658d" transform="matrix(1.8421056330039642,0,0,1.8421056330039642,-9.21052465148216,-0.00011243320513940211)"><g id="SvgjsG7334"><g xmlns="http://www.w3.org/2000/svg" transform="translate(0,-1004.3622)"><path style="color:;font-style:normal;font-variant:normal;font-weight:normal;font-stretch:normal;font-size:medium;line-height:normal;font-family:sans-serif;text-indent:0;text-align:start;text-decoration:none;text-decoration-line:none;text-decoration-style:solid;text-decoration-color:;letter-spacing:normal;word-spacing:normal;text-transform:none;direction:ltr;block-progression:tb;writing-mode:lr-tb;baseline-shift:baseline;text-anchor:start;white-space:normal;clip-rule:nonzero;display:inline;overflow:visible;visibility:visible;opacity:1;isolation:auto;mix-blend-mode:normal;color-interpolation:sRGB;color-interpolation-filters:linearRGB;solid-color:;solid-opacity:1;fill:#29658d;fill-opacity:1;fill-rule:evenodd;stroke:none;stroke-width:2;stroke-linecap:round;stroke-linejoin:round;stroke-miterlimit:4;stroke-dasharray:none;stroke-dashoffset:0;stroke-opacity:1;color-rendering:auto;image-rendering:auto;shape-rendering:auto;text-rendering:auto;enable-background:accumulate" d="m 23.968747,1004.3628 a 1.0000633,1.0001298 0 0 0 -0.507793,0.1562 l -17.9993391,11.5003 a 1.0000633,1.0001298 0 0 0 -0.4550613,0.9571 l 2.9998898,25.8758 a 1.0000633,1.0001298 0 0 0 0.4960755,0.7519 l 14.9994491,8.6253 a 1.0000633,1.0001298 0 0 0 0.996057,0 l 14.999449,-8.6253 a 1.0000633,1.0001298 0 0 0 0.496076,-0.7519 l 2.99989,-25.8758 a 1.0000633,1.0001298 0 0 0 -0.455062,-0.9571 L 24.539039,1004.519 a 1.0000633,1.0001298 0 0 0 -0.570292,-0.1562 z m 0.03125,2.1855 16.934925,10.8207 -2.870988,24.7527 -14.063937,8.0881 -14.063936,-8.0881 -2.8690353,-24.7527 16.9329713,-10.8207 z"></path><path style="color:;font-style:normal;font-variant:normal;font-weight:normal;font-stretch:normal;font-size:medium;line-height:normal;font-family:sans-serif;text-indent:0;text-align:start;text-decoration:none;text-decoration-line:none;text-decoration-style:solid;text-decoration-color:;letter-spacing:normal;word-spacing:normal;text-transform:none;direction:ltr;block-progression:tb;writing-mode:lr-tb;baseline-shift:baseline;text-anchor:start;white-space:normal;clip-rule:nonzero;display:inline;overflow:visible;visibility:visible;opacity:1;isolation:auto;mix-blend-mode:normal;color-interpolation:sRGB;color-interpolation-filters:linearRGB;solid-color:;solid-opacity:1;fill:#29658d;fill-opacity:1;fill-rule:nonzero;stroke:none;stroke-width:1.99999988;stroke-linecap:round;stroke-linejoin:round;stroke-miterlimit:4;stroke-dasharray:none;stroke-dashoffset:0;stroke-opacity:1;color-rendering:auto;image-rendering:auto;shape-rendering:auto;text-rendering:auto;enable-background:accumulate" d="m 24.005855,1019.3612 a 1.0000632,1.0001297 0 0 0 -0.919887,0.627 l -1.804622,4.4826 -5.445112,0.9063 a 1.0000632,1.0001297 0 0 0 -0.435531,1.7872 l 3.515496,2.6347 -0.865203,5.383 a 1.0000632,1.0001297 0 0 0 1.501898,1.0157 l 4.443196,-2.6701 4.400229,2.6876 a 1.0000632,1.0001297 0 0 0 1.50971,-1.0039 l -0.826141,-5.4084 3.519402,-2.6386 a 1.0000632,1.0001297 0 0 0 -0.435531,-1.7872 l -5.44316,-0.9063 -1.777278,-4.4787 a 1.0000632,1.0001297 0 0 0 -0.937466,-0.6309 z m 0.002,3.6954 1.062461,2.6779 a 1.0000632,1.0001297 0 0 0 0.765598,0.6172 l 3.69127,0.6132 -2.126875,1.5958 a 1.0000632,1.0001297 0 0 0 -0.388657,0.9512 l 0.593728,3.8771 -3.083872,-1.8848 a 1.0000632,1.0001297 0 0 0 -1.037071,0 l -3.117072,1.873 0.62107,-3.8556 a 1.0000632,1.0001297 0 0 0 -0.388658,-0.959 l -2.126875,-1.5958 3.691271,-0.6132 a 1.0000632,1.0001297 0 0 0 0.763644,-0.6133 l 1.080038,-2.6818 z"></path><path style="color:;font-style:normal;font-variant:normal;font-weight:normal;font-stretch:normal;font-size:medium;line-height:normal;font-family:sans-serif;text-indent:0;text-align:start;text-decoration:none;text-decoration-line:none;text-decoration-style:solid;text-decoration-color:;letter-spacing:normal;word-spacing:normal;text-transform:none;direction:ltr;block-progression:tb;writing-mode:lr-tb;baseline-shift:baseline;text-anchor:start;white-space:normal;clip-rule:nonzero;display:inline;overflow:visible;visibility:visible;opacity:1;isolation:auto;mix-blend-mode:normal;color-interpolation:sRGB;color-interpolation-filters:linearRGB;solid-color:;solid-opacity:1;fill:#29658d;fill-opacity:1;fill-rule:evenodd;stroke:none;stroke-width:2;stroke-linecap:round;stroke-linejoin:round;stroke-miterlimit:4;stroke-dasharray:none;stroke-dashoffset:0;stroke-opacity:1;color-rendering:auto;image-rendering:auto;shape-rendering:auto;text-rendering:auto;enable-background:accumulate" d="m 23.964842,1010.363 a 1.0000633,1.0001298 0 0 0 -0.499982,0.1543 l -12.999523,8.2502 a 1.0000633,1.0001298 0 0 0 -0.458968,0.9609 l 2.16789,18.5631 a 1.0000633,1.0001298 0 0 0 0.496075,0.752 l 10.833587,6.1877 a 1.0000633,1.0001298 0 0 0 0.992151,0 l 10.833586,-6.1877 a 1.0000633,1.0001298 0 0 0 0.496076,-0.752 l 2.167889,-18.5631 a 1.0000633,1.0001298 0 0 0 -0.458968,-0.9609 l -12.999522,-8.2502 a 1.0000633,1.0001298 0 0 0 -0.570291,-0.1543 z m 0.03516,2.1836 11.933156,7.5724 -2.035081,17.4381 -9.898079,5.6544 -9.898074,-5.6544 -2.035081,-17.4381 11.933155,-7.5724 z"></path></g></g></g><g id="SvgjsG7335" featureKey="text1" fill="#29658d" transform="matrix(1.9994974263562861,0,0,1.9994974263562861,83.81015624284208,18.220665508471004)"><path d="M9.5497 6.078523452157601 q1.238273921 0 2.195121951 0.4502814259 q0.9380863039 0.4502814259 1.575984991 1.144465291 q0.6191369606 0.6754221388 0.9756097561 1.557223265 q0.3189493433 0.8630393996 0.3189493433 1.651031895 q0 1.013133208 -0.4315196998 1.838649156 q-0.4127579737 0.8255159475 -1.125703565 1.425891182 q-0.7317073171 0.6191369606 -1.613508443 0.9193245779 q-0.9380863039 0.3377110694 -1.894934334 0.3377110694 l-4.5966 0 l0 4.6341 l-1.8574 0 l0 -12.983 q0 -0.3189493433 0.2814258912 -0.6566604128 q0.2626641651 -0.3189493433 0.8067542214 -0.3189493433 l5.3659 0 z M4.9531 13.7148234521576 l4.5966 0 q0.7692307692 0 1.332082552 -0.243902439 q0.5816135084 -0.243902439 0.9943714822 -0.6378986867 q0.3939962477 -0.3939962477 0.6191369606 -0.9193245779 q0.2063789869 -0.5253283302 0.2063789869 -1.031894934 q0 -0.5253283302 -0.2063789869 -1.106941839 q-0.1876172608 -0.5253283302 -0.6003752345 -0.9943714822 q-0.4315196998 -0.469043152 -0.9943714822 -0.7317073171 q-0.5816135084 -0.2814258912 -1.350844278 -0.2814258912 l-4.5966 0 l0 5.9475 z M20.881776923076924 17.3733234521576 l0.28143 0.11257 q0.07504690432 0.05628517824 0.2626641651 0.1313320826 q1.069418386 0.487804878 2.213883677 0.6754221388 q1.181988743 0.2063789869 2.288930582 0.2063789869 q0.7317073171 0 1.669793621 -0.1500938086 q0.95684803 -0.1500938086 1.632270169 -0.4315196998 q0.7504690432 -0.2814258912 1.238273921 -0.7504690432 q0.487804878 -0.487804878 0.487804878 -1.144465291 q0 -0.2626641651 -0.05628517824 -0.5253283302 q-0.09380863039 -0.3001876173 -0.243902439 -0.469043152 q-0.2626641651 -0.3377110694 -0.6941838649 -0.6003752345 q-0.3939962477 -0.2063789869 -0.9756097561 -0.3939962477 q-0.7317073171 -0.1876172608 -1.200750469 -0.243902439 q-0.243902439 -0.03752345216 -0.6848030019 -0.08442776735 t-0.64728 -0.065666 q-0.243902439 -0.03752345216 -0.703564728 -0.08442776735 t-0.6848 -0.065666 q-0.712945591 -0.05628517824 -1.350844278 -0.1688555347 q-0.7504690432 -0.1125703565 -1.425891182 -0.3377110694 q-0.6754221388 -0.2063789869 -1.219512195 -0.6191369606 q-0.487804878 -0.3377110694 -0.8255159475 -0.9756097561 q-0.3189493433 -0.6003752345 -0.3189493433 -1.425891182 q0 -0.7879924953 0.3189493433 -1.425891182 q0.3189493433 -0.6191369606 0.8067542214 -1.05065666 q0.5253283302 -0.469043152 1.181988743 -0.7692307692 q0.5816135084 -0.2626641651 1.407129456 -0.487804878 q0.7692307692 -0.1876172608 1.444652908 -0.2626641651 q0.6566604128 -0.07504690432 1.369606004 -0.07504690432 q1.257035647 0 2.607879925 0.2063789869 q1.257035647 0.2251407129 2.495309568 0.7692307692 l0.037523 0 q0.01876172608 0.01876172608 0.03752345216 0.01876172608 l-0.037523 0 l0.33771 0.093809 l-0.13133 -0.056285 l0.018762 0 q0.03752345216 0 0.03752345216 0.01876172608 l0.15009 0.037523 l0.16886 0.056285 l-0.65666 1.6886 l-0.22514 -0.11257 q-1.125703565 -0.6003752345 -2.288930582 -0.8255159475 q-1.275797373 -0.2063789869 -2.551594747 -0.2063789869 q-0.8067542214 0 -1.613508443 0.1125703565 q-0.8442776735 0.1500938086 -1.48217636 0.3939962477 q-0.6941838649 0.2814258912 -1.106941839 0.7317073171 q-0.4315196998 0.487804878 -0.4315196998 1.144465291 q0 0.487804878 0.243902439 0.8442776735 t0.82552 0.58161 q0.3001876173 0.1313320826 0.8067542214 0.2251407129 q0.5816135084 0.1125703565 1.05065666 0.1500938086 q0.5440900563 0.09380863039 1.069418386 0.1125703565 q0.2814258912 0.03752345216 0.9193245779 0.07504690432 q1.088180113 0.09380863039 2.045028143 0.243902439 q1.069418386 0.1876172608 1.969981238 0.6191369606 q0.9193245779 0.469043152 1.500938086 1.200750469 q0.5816135084 0.7504690432 0.5816135084 2.00750469 q0 0.7879924953 -0.3189493433 1.425891182 q-0.3189493433 0.6003752345 -0.8818011257 1.106941839 q-0.5816135084 0.487804878 -1.257035647 0.7879924953 t-1.4822 0.50657 q-0.7504690432 0.1876172608 -1.538461538 0.2814258912 q-0.6754221388 0.07504690432 -1.425891182 0.07504690432 q-0.8442776735 0 -1.726078799 -0.09380863039 q-0.8067542214 -0.09380863039 -1.500938086 -0.2814258912 q-0.7879924953 -0.2251407129 -1.425891182 -0.4502814259 q-0.9005628518 -0.3189493433 -1.500938086 -0.5816135084 l-0.15009 -0.056285 l0.84428 -1.5572 l0.18762 0.093809 q0.1500938086 0.05628517824 0.2251407129 0.09380863039 z M45.06564746716698 6.078523452157601 q1.238273921 0 2.195121951 0.4502814259 q0.9380863039 0.4502814259 1.575984991 1.144465291 q0.6191369606 0.6754221388 0.9756097561 1.557223265 q0.3189493433 0.8630393996 0.3189493433 1.651031895 q0 1.013133208 -0.4315196998 1.838649156 q-0.4127579737 0.8255159475 -1.125703565 1.425891182 q-0.7317073171 0.6191369606 -1.613508443 0.9193245779 q-0.9380863039 0.3377110694 -1.894934334 0.3377110694 l-4.5966 0 l0 4.6341 l-1.8574 0 l0 -12.983 q0 -0.3189493433 0.2814258912 -0.6566604128 q0.2626641651 -0.3189493433 0.8067542214 -0.3189493433 l5.3659 0 z M40.46904746716698 13.7148234521576 l4.5966 0 q0.7692307692 0 1.332082552 -0.243902439 q0.5816135084 -0.243902439 0.9943714822 -0.6378986867 q0.3939962477 -0.3939962477 0.6191369606 -0.9193245779 q0.2063789869 -0.5253283302 0.2063789869 -1.031894934 q0 -0.5253283302 -0.2063789869 -1.106941839 q-0.1876172608 -0.5253283302 -0.6003752345 -0.9943714822 q-0.4315196998 -0.469043152 -0.9943714822 -0.7317073171 q-0.5816135084 -0.2814258912 -1.350844278 -0.2814258912 l-4.5966 0 l0 5.9475 z M66.5480243902439 13.9024234521576 l-9.1557 0 l0 4.4278 l9.7373 0 l0 1.7073 l-10.507 0 q-0.5253283302 0 -0.8067542214 -0.3377110694 q-0.2814258912 -0.3189493433 -0.2814258912 -0.6378986867 l0 -12.008 q0 -0.3189493433 0.2814258912 -0.6566604128 q0.2626641651 -0.3189493433 0.8067542214 -0.3189493433 l10.507 0 l0 1.6886 l-9.7373 0 l0 4.4278 l9.1557 0 l0 1.7073 z M78.3301789868668 20.0375234521576 l0 -12.27 l-5.4221 0 l0 -1.6886 l12.72 0 l0 1.6886 l-5.4221 0 l0 12.27 l-1.8762 0 z M102.43920637898687 13.9024234521576 l-9.1557 0 l0 4.4278 l9.7373 0 l0 1.7073 l-10.507 0 q-0.5253283302 0 -0.8067542214 -0.3377110694 q-0.2814258912 -0.3189493433 -0.2814258912 -0.6378986867 l0 -12.008 q0 -0.3189493433 0.2814258912 -0.6566604128 q0.2626641651 -0.3189493433 0.8067542214 -0.3189493433 l10.507 0 l0 1.6886 l-9.7373 0 l0 4.4278 l9.1557 0 l0 1.7073 z"></path></g>
			</g>
		</svg>
	